<svg width="10" height="15" viewBox="0 0 10 15" fill="none" xmlns="http://www.w3.org/2000/svg">
<path d="M5.04569 14.5C2.53407 14.473 0.59764 12.884 0.115745 10.8146C-0.102134 9.87885 -0.00736977 8.96437 0.357509 8.06751C0.916125 6.69455 1.6525 5.40793 2.48561 4.16781C3.21417 3.08339 3.95569 2.00662 4.69086 0.926059C4.77549 0.801661 4.85651 0.67501 4.93838 0.548922C4.98091 0.483424 5.02189 0.484068 5.06399 0.548601C5.07516 0.56574 5.08659 0.582878 5.09767 0.600017C5.88464 1.81656 6.74199 2.99134 7.54039 4.20104C8.26439 5.29793 8.93659 6.42017 9.45199 7.61933C9.65535 8.09238 9.86077 8.5643 9.93929 9.07445C10.156 10.4809 9.79487 11.7417 8.81991 12.8296C7.91403 13.8404 6.73924 14.381 5.33402 14.4813C5.21984 14.4895 5.10557 14.4961 5.04569 14.5ZM4.7248 13.0236C5.23908 13.026 5.7251 12.9229 6.16747 12.6811C7.03289 12.2081 7.52999 11.5142 7.57158 10.5604C7.57467 10.4897 7.60448 10.369 7.54546 10.357C7.45061 10.3377 7.44416 10.4612 7.40507 10.5244C6.9066 11.3307 6.16163 11.7793 5.16992 11.816C3.62741 11.8732 2.40992 10.6928 2.44429 9.31375C2.44566 9.26008 2.44858 9.20641 2.44738 9.1529C2.44695 9.13512 2.44119 9.10929 2.42813 9.10156C2.39566 9.08233 2.37744 9.11138 2.36069 9.1315C2.3387 9.15789 2.31791 9.18541 2.29952 9.21413C1.77793 10.0304 1.72913 10.8686 2.23594 11.6967C2.78107 12.5875 3.6446 12.9945 4.7248 13.0236Z" fill="#0077BA"/>
</svg>
