<svg width="192" height="47" viewBox="0 0 192 47" fill="none" xmlns="http://www.w3.org/2000/svg">
<path d="M33.4684 35.4887C33.2102 35.4298 32.9626 35.3241 32.7045 35.2641C31.8459 35.0638 30.9868 34.9482 30.1491 35.3577C29.6032 35.6246 29.2311 36.0787 28.8811 36.5531C28.3291 37.3016 27.7094 37.9862 27.0043 38.5933C25.3555 40.0127 23.4617 40.8861 21.296 41.1536C19.6218 41.3605 17.9839 41.1712 16.3779 40.6814C15.6592 40.4623 14.9453 40.224 14.3058 39.8112C13.303 39.164 12.8886 37.9345 13.2997 36.825C13.6349 35.9213 14.5799 35.4524 15.6448 35.6483C16.3735 35.7826 17.0983 35.9818 17.849 35.9059C18.6025 35.8299 19.3086 35.6197 19.8529 35.0522C20.1336 34.7595 20.1996 34.4193 20.0296 34.039C19.8832 33.711 19.6427 33.4606 19.3708 33.2405C18.5282 32.5586 17.5739 32.0797 16.5623 31.7016C15.6905 31.3758 14.8303 31.3753 13.958 31.7055C12.8583 32.1221 11.8083 32.6472 10.7615 33.1733C9.34153 33.8877 7.90067 34.1882 6.35966 33.6351C5.04759 33.1645 3.91219 32.4507 3.20442 31.2058C1.94464 28.99 1.42565 26.608 1.6601 24.0648C1.71239 23.4996 1.79769 22.9343 1.7377 22.3642C1.7245 22.2381 1.70358 22.0967 1.56489 22.0417C1.41464 21.9822 1.29851 22.073 1.1978 22.1699C0.879137 22.4759 0.679355 22.8551 0.547818 23.2712C0.165316 24.4792 0.00570955 25.7208 0.00020592 26.9839C-0.0157546 30.749 0.895648 34.2658 2.89017 37.4716C4.86487 40.645 7.52918 43.0463 10.9706 44.5609C13.1148 45.5042 15.352 45.994 17.5755 46.0309C20.5783 45.9918 23.3301 45.4051 25.8921 44.0331C27.8035 43.0094 29.4815 41.6902 30.8971 40.0473C31.5801 39.2548 32.1739 38.393 32.7391 37.5129C33.0715 36.9961 33.3941 36.4744 33.6456 35.9114C33.7402 35.7 33.7446 35.5514 33.4684 35.4887Z" fill="white"/>
<path d="M145.491 16.3411C145.509 16.3378 145.527 16.3344 145.545 16.3311C145.569 16.3988 145.599 16.4654 145.618 16.5342C146.164 18.4467 146.711 20.3582 147.248 22.2729C147.302 22.466 147.376 22.5337 147.579 22.5304C148.35 22.5183 149.12 22.5167 149.891 22.531C150.099 22.5348 150.178 22.4583 150.229 22.2718C150.468 21.3967 150.717 20.5244 150.965 19.6515C151.737 16.9365 152.508 14.2211 153.287 11.5083C153.344 11.3085 153.287 11.2711 153.104 11.2722C152.343 11.2777 151.581 11.2827 150.82 11.2695C150.598 11.2656 150.504 11.3261 150.448 11.5529C149.869 13.9206 149.277 16.2855 148.685 18.6498C148.659 18.7555 148.669 18.8854 148.547 18.9762C148.519 18.9013 148.492 18.843 148.476 18.7825C148.195 17.7192 147.917 16.6553 147.635 15.5926C147.273 14.2282 146.906 12.8655 146.551 11.4995C146.505 11.3206 146.422 11.2684 146.248 11.2717C145.762 11.281 145.275 11.2794 144.789 11.2728C144.629 11.2706 144.543 11.3118 144.503 11.4852C144.408 11.8958 144.287 12.3003 144.18 12.7076C143.644 14.7367 143.11 16.7659 142.572 18.7946C142.556 18.8557 142.558 18.9399 142.452 18.9668C142.425 18.8722 142.398 18.7863 142.377 18.6994C141.786 16.3251 141.192 13.9514 140.609 11.5755C140.553 11.352 140.47 11.2623 140.227 11.2684C139.493 11.286 138.759 11.2739 138.025 11.275C137.694 11.2755 137.69 11.2777 137.785 11.6101C138.176 12.9948 138.568 14.379 138.962 15.7626C139.582 17.9399 140.203 20.116 140.82 22.2938C140.862 22.4391 140.9 22.5326 141.088 22.5304C141.904 22.5194 142.721 22.5222 143.537 22.5288C143.684 22.5299 143.745 22.476 143.784 22.3395C144.097 21.2189 144.415 20.0995 144.735 18.98C144.986 18.1006 145.239 17.2211 145.491 16.3411Z" fill="white"/>
<path d="M34.7215 25.6126C33.8733 26.0452 32.9718 26.3182 32.0384 26.4833C30.4352 26.7673 28.8172 26.8542 27.1908 26.8234C24.8171 26.7788 22.51 26.3693 20.264 25.595C18.5155 24.9923 16.8737 24.1624 15.2468 23.2967C14.096 22.6841 12.9287 22.1117 11.6282 21.8806C10.3282 21.6494 9.01728 21.6615 7.70631 21.7287C7.0112 21.7644 6.31774 21.8498 5.64465 22.0446C4.86644 22.2697 4.14381 22.6027 3.61491 23.2411C2.71672 24.3253 2.92806 25.5675 3.10582 26.8113C3.15866 26.803 3.18012 26.8058 3.19278 26.7964C3.28965 26.7271 3.38541 26.6561 3.48117 26.5851C4.2858 25.9852 5.12731 25.4442 6.08439 25.125C8.65514 24.2686 11.1934 24.4475 13.6965 25.4167C15.0922 25.9571 16.4114 26.6627 17.7345 27.3523C20.6773 28.8862 23.805 29.6396 27.1149 29.6935C28.5189 29.7166 29.9195 29.6787 31.3213 29.6143C32.4253 29.5631 33.5024 29.3485 34.5767 29.1101C34.7325 29.0755 34.8255 29.0292 34.842 28.8361C34.9328 27.8025 34.9411 26.7667 34.9427 25.7309C34.9438 25.5058 34.8645 25.5394 34.7215 25.6126Z" fill="white"/>
<path d="M84.7984 22.2427C84.7213 21.5321 84.6674 20.8189 84.603 20.1067C84.4445 18.3538 84.2843 16.6009 84.1264 14.848C84.0262 13.734 83.9266 12.6201 83.8325 11.5056C83.8187 11.3411 83.7686 11.2684 83.5854 11.2712C82.8149 11.2811 82.0443 11.2778 81.2738 11.2734C81.1346 11.2723 81.063 11.3185 81.0119 11.4533C80.4257 12.9955 79.8335 14.5348 79.243 16.0753C79.035 16.6168 78.8264 17.1584 78.6007 17.7434C78.555 17.6482 78.5286 17.6014 78.5099 17.5519C77.7378 15.5414 76.9628 13.5315 76.1995 11.5172C76.1279 11.329 76.0382 11.2684 75.8429 11.2712C75.1274 11.2816 74.4119 11.2877 73.6964 11.269C73.4328 11.2618 73.3613 11.3477 73.3403 11.6025C73.1934 13.384 73.0305 15.1644 72.8714 16.9449C72.7102 18.7434 72.5489 20.5426 72.3822 22.3406C72.3673 22.498 72.4245 22.5288 72.5621 22.5277C73.287 22.5239 74.0112 22.5228 74.7361 22.5283C74.8896 22.5294 74.937 22.4766 74.9491 22.3241C75.0922 20.4501 75.2419 18.5767 75.391 16.7033C75.413 16.4297 75.44 16.1567 75.4664 15.8601C75.5787 15.9338 75.5842 16.0109 75.6079 16.0786C76.3228 18.1298 77.0393 20.1799 77.7488 22.2333C77.806 22.3984 77.8842 22.4656 78.0614 22.4595C78.4186 22.4468 78.7768 22.4485 79.1346 22.459C79.298 22.4639 79.3789 22.4089 79.4334 22.2509C80.0933 20.3362 80.7587 18.4237 81.4279 16.5117C81.5017 16.302 81.5457 16.0764 81.7015 15.8507C81.7235 15.9713 81.7444 16.0489 81.7505 16.1276C81.8132 16.9135 81.8737 17.6994 81.9348 18.4859C82.0322 19.738 82.1335 20.99 82.2238 22.2432C82.2392 22.4579 82.3041 22.5382 82.5347 22.5322C83.1946 22.5151 83.8556 22.5178 84.5155 22.531C84.7406 22.5355 84.8248 22.4859 84.7984 22.2427Z" fill="white"/>
<path d="M105.155 22.2807C105.15 18.695 105.15 15.1094 105.155 11.5238C105.155 11.3339 105.101 11.269 104.908 11.2717C104.239 11.2811 103.569 11.2855 102.9 11.2701C102.652 11.2646 102.575 11.3323 102.576 11.5898C102.587 13.69 102.582 15.7897 102.582 17.8899C102.582 17.9851 102.582 18.0797 102.582 18.1749C102.215 17.7132 101.909 17.2382 101.605 16.7627C100.489 15.0175 99.3721 13.2734 98.2626 11.5243C98.1465 11.3411 98.0193 11.2657 97.7992 11.2701C97.1211 11.2844 96.442 11.2794 95.7634 11.2728C95.5889 11.2712 95.5284 11.3229 95.5284 11.5067C95.5333 15.1017 95.5339 18.6961 95.5278 22.2911C95.5273 22.4953 95.6043 22.5322 95.7849 22.5294C96.4541 22.5212 97.1239 22.5129 97.7931 22.5327C98.0573 22.5404 98.1074 22.4491 98.1068 22.2075C98.098 20.1166 98.1019 18.0258 98.1019 15.935C98.1019 15.837 98.1019 15.7385 98.1019 15.6405C98.1245 15.6345 98.147 15.6284 98.1696 15.6229C98.2885 15.8056 98.409 15.9878 98.5262 16.1716C99.83 18.2102 101.135 20.2476 102.433 22.2895C102.543 22.4628 102.66 22.5371 102.872 22.5322C103.55 22.5168 104.23 22.5201 104.908 22.5305C105.103 22.5333 105.155 22.4711 105.155 22.2807Z" fill="white"/>
<path d="M34.4717 30.048C34.1184 30.152 33.7524 30.2043 33.388 30.223C30.6681 30.365 27.9477 30.4514 25.2267 30.239C22.7666 30.0469 20.4413 29.3788 18.2156 28.3232C16.7505 27.6281 15.3311 26.8405 13.8408 26.196C11.9442 25.3754 9.97831 25.0826 7.92875 25.3479C6.18355 25.5741 4.73555 26.4239 3.39486 27.502C3.3046 27.5747 3.30845 27.6413 3.33652 27.7392C3.51209 28.349 3.74049 28.9374 4.04814 29.4927C4.2925 29.933 4.29361 29.9324 4.68657 29.6028C4.7427 29.5554 4.79774 29.5076 4.85387 29.4602C5.79995 28.6572 6.83408 28.0502 8.10157 27.9115C9.50004 27.7585 10.7923 28.0882 12.0284 28.7134C12.9024 29.1553 13.6971 29.7459 14.6278 30.081C14.8232 30.1515 15.002 30.1867 15.2123 30.1317C16.5684 29.7767 17.8226 29.9754 18.9657 30.8213C19.5568 31.2588 20.2393 31.4245 20.9685 31.3463C22.3312 31.2005 23.6939 31.1465 25.0555 31.3331C26.3335 31.5081 27.5685 31.8372 28.7297 32.414C29.6301 32.8615 30.5575 33.2192 31.4155 33.2566C32.3049 33.2627 32.9274 33.0167 33.4216 32.4806C34.0259 31.8246 34.3545 31.02 34.6318 30.1895C34.6913 30.0133 34.617 30.0051 34.4717 30.048Z" fill="white"/>
<path d="M11.6906 19.8866C11.6867 20.0825 11.7726 20.1122 11.9371 20.11C12.6064 20.1007 13.275 20.1232 13.9421 20.1882C15.1617 20.3065 16.3307 20.6527 17.5068 20.9713C18.5239 21.2471 19.5431 21.5195 20.7605 21.5201C21.6054 21.5371 22.5498 21.2856 23.4837 20.973C23.6076 20.9317 23.6466 20.8574 23.656 20.7314C23.8019 18.7391 23.2531 16.9768 21.9003 15.4925C20.2118 13.6394 17.6097 13.0989 15.3373 14.1331C13.0395 15.1782 11.7329 17.5839 11.6906 19.8866Z" fill="white"/>
<path d="M183.082 22.5298C183.742 22.5193 184.403 22.5149 185.063 22.5315C185.304 22.5375 185.373 22.4709 185.371 22.2266C185.359 20.9706 185.365 19.7141 185.367 18.4577C185.367 18.3619 185.335 18.2584 185.403 18.166C185.501 18.2012 185.537 18.2904 185.591 18.3597C186.611 19.6795 187.632 20.9992 188.646 22.3229C188.756 22.466 188.869 22.537 189.058 22.5298C189.479 22.5149 189.901 22.5248 190.323 22.5248C190.879 22.5248 191.435 22.5248 192 22.5248C191.981 22.3895 191.893 22.3295 191.831 22.2557C190.684 20.8732 189.539 19.489 188.381 18.1153C188.207 17.9084 188.244 17.8517 188.475 17.7565C190.475 16.9376 191.173 14.1907 189.809 12.5066C189.098 11.6282 188.12 11.309 187.033 11.2908C185.713 11.2688 184.392 11.2864 183.072 11.2754C182.86 11.2738 182.813 11.3464 182.813 11.5451C182.818 15.1214 182.818 18.6976 182.812 22.2733C182.812 22.4913 182.887 22.5331 183.082 22.5298ZM185.585 13.32C186.016 13.325 186.444 13.3228 186.864 13.4422C187.387 13.5908 187.703 13.9535 187.771 14.4928C187.91 15.5732 187.426 16.15 186.295 16.2419C186.058 16.2612 185.819 16.2469 185.582 16.2617C185.41 16.2727 185.361 16.2012 185.364 16.0388C185.371 15.6183 185.366 15.1973 185.366 14.7763C185.366 14.3646 185.372 13.9529 185.364 13.5413C185.36 13.3751 185.418 13.3178 185.585 13.32Z" fill="white"/>
<path d="M123.431 22.5299C124.155 22.5206 124.879 22.5261 125.604 22.5261C125.948 22.5261 125.946 22.5261 125.815 22.2019C125.256 20.8177 124.697 19.433 124.139 18.0488C123.258 15.8656 122.376 13.6834 121.502 11.4973C121.431 11.3201 121.339 11.2684 121.157 11.2711C120.534 11.2816 119.909 11.2816 119.286 11.2711C119.102 11.2678 119.014 11.3289 118.944 11.5028C117.502 15.0989 116.054 18.6928 114.601 22.285C114.523 22.4798 114.542 22.5338 114.761 22.5305C115.513 22.52 116.265 22.5189 117.017 22.5321C117.211 22.5354 117.289 22.46 117.348 22.2922C117.555 21.7044 117.782 21.1237 117.984 20.5348C118.051 20.3417 118.14 20.2613 118.354 20.2668C118.977 20.2817 119.6 20.2723 120.224 20.2723C120.847 20.2723 121.471 20.2784 122.094 20.2685C122.284 20.2652 122.384 20.3108 122.452 20.5079C122.659 21.1144 122.9 21.7093 123.113 22.3136C123.172 22.4798 123.256 22.5327 123.431 22.5299ZM121.264 18.0241C120.568 18.0147 119.873 18.0219 119.176 18.018C119.096 18.0175 118.941 18.0709 119.016 17.8777C119.406 16.8617 119.795 15.8457 120.186 14.8298C120.191 14.8171 120.211 14.81 120.247 14.7813C120.434 15.2651 120.618 15.7401 120.801 16.2161C121.004 16.7456 121.201 17.2772 121.41 17.8045C121.477 17.9696 121.459 18.0268 121.264 18.0241Z" fill="white"/>
<path d="M159.721 11.461C159.663 11.3162 159.58 11.2711 159.432 11.2727C158.855 11.2782 158.276 11.2969 157.7 11.2661C157.371 11.2485 157.223 11.3652 157.104 11.6646C155.834 14.8468 154.55 18.0229 153.27 21.2013C153.097 21.6311 152.927 22.0626 152.744 22.5255C153.645 22.5255 154.497 22.5233 155.349 22.5277C155.484 22.5282 155.514 22.4451 155.55 22.3471C155.776 21.7373 156.012 21.1308 156.226 20.5172C156.291 20.3323 156.377 20.2646 156.577 20.2662C157.824 20.2756 159.071 20.2761 160.318 20.2662C160.526 20.2646 160.627 20.329 160.695 20.5265C160.901 21.1242 161.125 21.7153 161.344 22.3081C161.381 22.406 161.391 22.5266 161.546 22.526C162.406 22.5233 163.267 22.5249 164.15 22.5249C164.133 22.4506 164.132 22.4231 164.122 22.3989C162.654 18.7533 161.186 15.1082 159.721 11.461ZM159.503 18.024C158.806 18.0136 158.109 18.0191 157.412 18.0207C157.287 18.0213 157.188 18.0191 157.256 17.843C157.648 16.8275 158.036 15.811 158.425 14.7945C158.447 14.7962 158.467 14.7973 158.489 14.7989C158.623 15.1489 158.756 15.499 158.89 15.8484C159.139 16.499 159.385 17.1501 159.639 17.7989C159.697 17.9481 159.716 18.0273 159.503 18.024Z" fill="white"/>
<path d="M92.8664 11.2696C90.9319 11.2801 88.9974 11.2812 87.0629 11.2691C86.786 11.2674 86.7337 11.3588 86.7354 11.6136C86.7458 13.3737 86.7409 15.1343 86.7409 16.8943C86.7409 18.6731 86.7442 20.4519 86.737 22.2301C86.7359 22.4442 86.7745 22.5334 87.0177 22.5317C88.9798 22.5218 90.9418 22.5229 92.9039 22.5306C93.1097 22.5311 93.1713 22.4739 93.1664 22.2681C93.1532 21.7001 93.1515 21.131 93.1669 20.5631C93.173 20.3363 93.1086 20.2664 92.8769 20.2686C91.7674 20.2802 90.6584 20.2697 89.5488 20.2774C89.3573 20.2785 89.2946 20.2207 89.2979 20.0281C89.3083 19.4508 89.3122 18.8729 89.2962 18.2956C89.2896 18.0622 89.3667 18.0044 89.5912 18.0072C90.6364 18.0182 91.6815 18.0061 92.7267 18.0171C92.9462 18.0193 93.0084 17.9538 93.0029 17.7386C92.9892 17.1706 92.9886 16.6015 93.0029 16.0336C93.0084 15.814 92.9391 15.7551 92.7239 15.7573C91.6694 15.7672 90.6149 15.7567 89.561 15.7661C89.3551 15.7677 89.2918 15.7061 89.2968 15.5008C89.3094 14.951 89.3166 14.4001 89.2946 13.8508C89.2836 13.5734 89.3843 13.5179 89.6397 13.5206C90.7211 13.5333 91.8031 13.5217 92.8851 13.53C93.0926 13.5316 93.173 13.4821 93.1664 13.257C93.1499 12.6984 93.1488 12.1381 93.1669 11.5795C93.1752 11.3401 93.113 11.268 92.8664 11.2696Z" fill="white"/>
<path d="M64.1753 16.875C64.1753 18.6631 64.1759 20.4507 64.1742 22.2388C64.1742 22.4028 64.1605 22.5327 64.4059 22.5316C66.3955 22.5223 68.3851 22.5245 70.3746 22.53C70.5612 22.5305 70.6063 22.4628 70.6036 22.2895C70.5953 21.7121 70.5893 21.1337 70.6058 20.5569C70.6124 20.3208 70.5298 20.2669 70.308 20.2691C69.2354 20.2795 68.1627 20.274 67.09 20.2735C66.74 20.2735 66.74 20.2729 66.7395 19.9108C66.7395 19.3791 66.751 18.8469 66.734 18.3158C66.7263 18.0792 66.7857 18.0016 67.0356 18.0054C68.0625 18.0203 69.0895 18.0049 70.1159 18.0164C70.3564 18.0192 70.4544 17.9697 70.444 17.7038C70.4219 17.1639 70.4263 16.6218 70.4423 16.0814C70.4495 15.8381 70.3906 15.7506 70.1275 15.7545C69.1011 15.7704 68.0735 15.7545 67.0471 15.766C66.8138 15.7688 66.7241 15.7187 66.7334 15.465C66.7532 14.9245 66.7532 14.3829 66.7334 13.8425C66.7241 13.5844 66.8088 13.5172 67.0581 13.52C68.1401 13.5315 69.2222 13.5183 70.3036 13.5299C70.5469 13.5326 70.614 13.4572 70.6063 13.2178C70.5882 12.668 70.5909 12.1177 70.6058 11.5678C70.6118 11.346 70.5568 11.2684 70.3201 11.2695C68.3674 11.2789 66.4142 11.2783 64.4615 11.2701C64.2298 11.269 64.1698 11.34 64.1709 11.5656C64.1792 13.3356 64.1753 15.105 64.1753 16.875Z" fill="white"/>
<path d="M29.0337 21.7369C28.064 21.7633 27.1311 22.0208 26.2257 22.3527C24.4635 22.9994 22.6621 23.2146 20.7931 22.995C19.1255 22.7991 17.4849 22.4562 15.8338 22.1711C15.0974 22.044 14.3577 21.9421 13.6021 21.908C13.9048 22.0522 14.2102 22.192 14.5107 22.3417C16.1343 23.1491 17.7254 24.0231 19.4293 24.6609C21.344 25.3775 23.3099 25.8756 25.349 26.0561C27.3556 26.2339 29.3595 26.2031 31.3568 25.9301C32.5357 25.7688 33.6722 25.4639 34.7382 24.9213C34.8637 24.8574 34.9573 24.8128 34.8455 24.6428C34.4471 24.0352 34.0332 23.4391 33.4597 22.9823C32.162 21.9482 30.633 21.6928 29.0337 21.7369Z" fill="white"/>
<path d="M174.02 16.8776C174.02 18.6652 174.021 20.4528 174.018 22.2409C174.018 22.4082 174.01 22.5321 174.252 22.531C176.242 22.5216 178.231 22.5238 180.221 22.5293C180.404 22.5299 180.454 22.4704 180.451 22.2938C180.441 21.7164 180.437 21.1385 180.452 20.5612C180.458 20.3345 180.395 20.2651 180.163 20.2679C179.073 20.28 177.981 20.2668 176.89 20.2783C176.657 20.2805 176.567 20.2315 176.576 19.9778C176.596 19.4192 176.592 18.8595 176.577 18.3003C176.571 18.0763 176.63 18.0026 176.865 18.0053C177.918 18.018 178.973 18.0053 180.027 18.0152C180.233 18.0169 180.295 17.9591 180.291 17.7527C180.277 17.1847 180.276 16.6157 180.291 16.0477C180.297 15.8204 180.233 15.7521 180.002 15.7549C178.956 15.767 177.911 15.7532 176.866 15.7653C176.632 15.7681 176.571 15.6921 176.577 15.4681C176.592 14.9183 176.595 14.368 176.576 13.8182C176.568 13.5699 176.649 13.5111 176.887 13.5138C177.987 13.5259 179.087 13.5144 180.187 13.5232C180.391 13.5248 180.456 13.4692 180.451 13.2606C180.437 12.6833 180.436 12.1054 180.452 11.5281C180.458 11.3135 180.384 11.2694 180.186 11.27C178.224 11.276 176.263 11.2777 174.301 11.2683C174.064 11.2672 174.013 11.347 174.014 11.5683C174.023 13.3393 174.02 15.1088 174.02 16.8776Z" fill="white"/>
<path d="M52.9846 22.53C53.1833 22.5306 53.2323 22.4596 53.229 22.2752C53.2196 21.7067 53.2125 21.1376 53.2317 20.5696C53.2406 20.3159 53.1486 20.2664 52.9158 20.2691C51.8432 20.2807 50.7694 20.2625 49.6968 20.2818C49.4056 20.2873 49.344 20.1943 49.3539 19.9257C49.3743 19.3853 49.3699 18.8437 49.355 18.3027C49.3489 18.0792 49.4067 18.0033 49.6423 18.006C50.6786 18.0187 51.7149 18.0022 52.7513 18.0182C53.0149 18.022 53.0754 17.9345 53.0683 17.6901C53.0523 17.1497 53.0523 16.6076 53.0683 16.0671C53.0754 15.8294 53.01 15.7523 52.7623 15.7556C51.7353 15.7694 50.7078 15.7545 49.6808 15.7661C49.4392 15.7688 49.3418 15.7176 49.3533 15.4513C49.3759 14.9389 49.3599 14.4243 49.3599 13.9108C49.3599 13.52 49.3599 13.52 49.738 13.52C50.7925 13.52 51.8476 13.5134 52.9021 13.525C53.1437 13.5277 53.2417 13.4749 53.2312 13.2102C53.2103 12.6697 53.2136 12.1276 53.2301 11.5872C53.2373 11.3477 53.1707 11.2745 52.9241 11.2756C50.989 11.2856 49.0539 11.2856 47.1189 11.2756C46.8668 11.2745 46.7953 11.3444 46.7969 11.5976C46.8074 13.3676 46.8024 15.1375 46.8024 16.9075C46.8024 18.6868 46.8035 20.4662 46.8008 22.2449C46.8002 22.4183 46.8052 22.5317 47.0413 22.5306C49.0226 22.5223 51.0033 22.5234 52.9846 22.53Z" fill="white"/>
<path d="M114.115 11.2717C111.647 11.2767 109.18 11.2761 106.713 11.2728C106.545 11.2728 106.468 11.307 106.473 11.5001C106.485 12.0962 106.486 12.6928 106.473 13.2883C106.468 13.4913 106.546 13.531 106.728 13.5282C107.397 13.5194 108.067 13.5249 108.736 13.5249C109.14 13.5249 109.141 13.5255 109.141 13.9234C109.141 16.684 109.144 19.4446 109.137 22.2052C109.136 22.4447 109.183 22.541 109.449 22.5322C110.1 22.5113 110.752 22.5146 111.402 22.5311C111.641 22.5371 111.713 22.4777 111.711 22.2289C111.699 20.8348 111.705 19.4408 111.705 18.0467C111.705 16.6433 111.712 15.2398 111.699 13.837C111.696 13.5745 111.782 13.515 112.025 13.52C112.722 13.5337 113.42 13.5194 114.116 13.5271C114.303 13.5293 114.372 13.4732 114.368 13.2778C114.357 12.6911 114.357 12.1039 114.368 11.5172C114.373 11.3202 114.301 11.2717 114.115 11.2717Z" fill="white"/>
<path d="M166.975 13.8122C166.966 15.2145 166.97 16.6168 166.97 18.0197C166.97 19.4314 166.975 20.8431 166.966 22.2548C166.964 22.471 167.024 22.5365 167.242 22.5316C167.893 22.5178 168.544 22.5129 169.194 22.5332C169.467 22.5415 169.548 22.4749 169.546 22.1893C169.535 19.4209 169.539 16.6526 169.539 13.8848C169.539 13.5216 169.539 13.521 169.889 13.521C170.577 13.5205 171.264 13.515 171.952 13.5243C172.141 13.5271 172.207 13.471 172.201 13.2767C172.188 12.8556 172.203 12.4335 172.195 12.0119C172.191 11.7764 172.298 11.472 172.147 11.324C171.997 11.1759 171.693 11.2772 171.456 11.2772C169.174 11.2739 166.891 11.2778 164.609 11.2712C164.394 11.2706 164.3 11.3086 164.308 11.5535C164.327 12.1209 164.322 12.69 164.31 13.258C164.305 13.4605 164.363 13.5282 164.571 13.5249C165.277 13.5133 165.983 13.5304 166.688 13.515C166.926 13.5095 166.977 13.5898 166.975 13.8122Z" fill="white"/>
<path d="M55.9067 22.5315C57.8506 22.5216 59.7945 22.5232 61.7383 22.5304C61.9469 22.531 62.0267 22.4853 62.0201 22.2596C62.0042 21.6917 62.0031 21.1226 62.0201 20.5546C62.0273 20.3157 61.9403 20.2673 61.7207 20.2695C60.6481 20.2794 59.5749 20.2739 58.5022 20.2739C58.1494 20.2739 58.1489 20.2734 58.1489 19.9156C58.1489 17.1374 58.1456 14.3592 58.1538 11.5804C58.1544 11.3426 58.0982 11.2628 57.8511 11.2694C57.1912 11.2865 56.5308 11.2854 55.8709 11.27C55.6332 11.2645 55.5836 11.3492 55.5842 11.5699C55.5924 13.3393 55.5886 15.1093 55.5886 16.8793C55.5886 18.658 55.5941 20.4368 55.5825 22.2156C55.582 22.4732 55.659 22.5326 55.9067 22.5315Z" fill="white"/>
<path d="M133.709 22.2932C133.702 21.7065 133.699 21.1193 133.711 20.5332C133.715 20.3268 133.65 20.2679 133.445 20.2695C132.354 20.2789 131.263 20.2635 130.172 20.2811C129.89 20.2855 129.823 20.2073 129.824 19.93C129.834 17.1523 129.827 14.374 129.836 11.5958C129.837 11.3404 129.763 11.2694 129.513 11.2755C128.863 11.2915 128.211 11.2904 127.561 11.276C127.328 11.2705 127.269 11.3459 127.271 11.571C127.279 13.3405 127.275 15.1099 127.275 16.8793C127.275 18.6669 127.277 20.455 127.274 22.2426C127.274 22.4104 127.267 22.5321 127.508 22.531C129.498 22.5216 131.487 22.5233 133.477 22.5293C133.663 22.5304 133.711 22.4671 133.709 22.2932Z" fill="white"/>
<path d="M161.726 26.9268C161.377 26.9367 161.028 26.9477 160.681 26.9241C160.408 26.9054 160.322 26.9808 160.326 27.267C160.341 28.6792 160.333 30.0914 160.331 31.5042C160.331 31.606 160.362 31.7177 160.274 31.8311C160.213 31.7497 160.163 31.6869 160.116 31.6214C159.046 30.1211 157.975 28.6219 156.911 27.1184C156.817 26.9852 156.721 26.9213 156.553 26.9263C156.159 26.9378 155.764 26.9395 155.37 26.9263C155.173 26.9197 155.121 26.9907 155.124 27.1789C155.134 27.7749 155.128 28.371 155.128 28.967C155.128 30.7827 155.132 32.5989 155.123 34.4145C155.122 34.6451 155.187 34.7156 155.416 34.7046C155.782 34.6864 156.15 34.6886 156.516 34.704C156.727 34.7128 156.798 34.6556 156.796 34.4316C156.785 33.3039 156.791 32.1756 156.791 31.0474C156.791 30.6275 156.791 30.2081 156.791 29.7882C156.812 29.7794 156.833 29.7706 156.855 29.7617C156.928 29.8641 157.003 29.9665 157.076 30.0694C158.121 31.5532 159.168 33.0364 160.211 34.5213C160.296 34.6429 160.388 34.7079 160.548 34.7029C160.942 34.6914 161.337 34.6919 161.731 34.7024C161.907 34.7073 161.967 34.6539 161.966 34.4712C161.961 32.0314 161.961 29.5922 161.966 27.1525C161.967 26.9637 161.896 26.9219 161.726 26.9268Z" fill="white"/>
<path d="M111.278 31.4475C111.278 30.0447 111.271 28.6412 111.284 27.2384C111.286 26.978 111.204 26.9103 110.959 26.9247C110.621 26.9439 110.28 26.9439 109.942 26.9247C109.706 26.9109 109.652 26.9962 109.653 27.2202C109.663 28.66 109.659 30.0997 109.657 31.5395C109.657 31.6358 109.684 31.7376 109.615 31.8609C109.552 31.7789 109.497 31.7117 109.447 31.6413C108.377 30.141 107.306 28.6423 106.242 27.1376C106.135 26.9868 106.025 26.9181 105.837 26.9252C105.462 26.9395 105.085 26.9434 104.709 26.9241C104.481 26.9125 104.432 27.0001 104.439 27.2075C104.452 27.6104 104.443 28.0144 104.443 28.4178C104.443 30.4173 104.446 32.4162 104.437 34.4157C104.436 34.6485 104.504 34.7145 104.73 34.7035C105.096 34.6859 105.465 34.6864 105.831 34.7035C106.05 34.714 106.107 34.6424 106.106 34.4267C106.097 32.9687 106.101 31.5103 106.104 30.0524C106.104 29.9588 106.063 29.8537 106.156 29.7535C106.227 29.8465 106.295 29.9313 106.358 30.0193C107.404 31.5026 108.452 32.9842 109.491 34.4729C109.61 34.6441 109.734 34.714 109.941 34.7035C110.28 34.6864 110.62 34.6853 110.959 34.7035C111.201 34.7167 111.289 34.6545 111.285 34.3909C111.268 33.4107 111.278 32.4288 111.278 31.4475Z" fill="white"/>
<path d="M15.8949 4.75539C16.2922 7.24249 16.688 9.73013 17.0853 12.2178C17.1596 12.6823 17.1629 12.6817 17.6197 12.6812C18.1299 12.6806 18.1305 12.6812 18.2119 12.1726C18.4931 10.4181 18.7744 8.66297 19.0551 6.90842C19.3126 5.2986 19.5702 3.68824 19.8289 2.07843C19.8498 1.94854 19.8613 1.84067 19.7386 1.735C19.12 1.20335 18.5069 0.665093 17.901 0.119683C17.7083 -0.0542315 17.5548 -0.028364 17.3759 0.131241C16.7815 0.662342 16.1855 1.19234 15.5806 1.71188C15.4557 1.81921 15.4331 1.92488 15.4573 2.07072C15.6059 2.96506 15.7518 3.85995 15.8949 4.75539Z" fill="white"/>
<path d="M88.1527 26.8499C86.0376 26.8256 84.3233 28.5444 84.2963 30.7145C84.2671 33.0783 85.85 34.7745 88.1048 34.7966C90.3888 34.8191 92.0784 33.1675 92.1104 30.8802C92.1428 28.5868 90.4631 26.8763 88.1527 26.8499ZM89.9656 32.3012C89.1296 33.6017 87.249 33.5924 86.4174 32.2875C85.8802 31.4454 85.9028 30.1097 86.4686 29.2874C86.878 28.6914 87.44 28.4008 88.1698 28.4063C89.4339 28.4162 90.2864 29.2863 90.3475 30.6419C90.3734 31.2275 90.2903 31.796 89.9656 32.3012Z" fill="white"/>
<path d="M148.16 26.8496C146.083 26.8441 144.269 28.575 144.335 30.8265C144.341 33.1579 145.953 34.8035 148.226 34.7974C150.481 34.7914 152.158 33.0891 152.142 30.8238C152.125 28.5117 150.467 26.8557 148.16 26.8496ZM149.482 32.8607C148.208 33.8277 146.353 33.0131 146.112 31.3951C146.009 30.7093 146.066 30.0428 146.421 29.427C146.814 28.744 147.42 28.3983 148.207 28.4055C149.373 28.4154 150.215 29.1744 150.351 30.3417C150.465 31.3202 150.319 32.2256 149.482 32.8607Z" fill="white"/>
<path d="M117.194 26.9383C116.388 26.9179 115.581 26.9388 114.775 26.9245C114.55 26.9206 114.477 26.979 114.48 27.2123C114.491 28.4127 114.485 29.613 114.485 30.8134C114.485 32.0231 114.486 33.2322 114.484 34.4419C114.484 34.5889 114.477 34.7061 114.691 34.7028C115.589 34.6896 116.488 34.7182 117.384 34.6791C118.298 34.6395 119.121 34.3274 119.79 33.6752C120.693 32.7952 120.956 31.6906 120.879 30.4809C120.742 28.3422 119.336 26.9922 117.194 26.9383ZM119.046 31.7704C118.797 32.6296 118.045 33.1535 117.04 33.1992C116.82 33.2091 116.599 33.1926 116.38 33.2052C116.204 33.2151 116.165 33.1381 116.166 32.9785C116.172 32.2542 116.169 31.5294 116.169 30.8051C116.169 30.1083 116.182 29.411 116.163 28.7143C116.155 28.449 116.248 28.3945 116.489 28.4C116.903 28.4094 117.31 28.4314 117.714 28.5404C118.396 28.7242 118.82 29.1606 119.031 29.8194C119.237 30.4666 119.234 31.1238 119.046 31.7704Z" fill="white"/>
<path d="M101.24 27.1509C101.24 26.9582 101.16 26.9225 100.993 26.9263C100.617 26.9351 100.241 26.9417 99.8654 26.9241C99.6447 26.9137 99.5892 26.988 99.5903 27.2021C99.5991 28.6049 99.5947 30.0078 99.5952 31.4112C99.5952 31.6875 99.5715 31.9616 99.4967 32.228C99.3426 32.7767 98.8946 33.1086 98.2644 33.1471C97.6579 33.1845 97.1797 32.9027 96.9551 32.3865C96.8269 32.0915 96.8164 31.7816 96.8164 31.4696C96.8153 30.048 96.8126 28.6269 96.8197 27.2054C96.8208 26.9984 96.7746 26.9126 96.5484 26.9241C96.1736 26.9434 95.796 26.9423 95.4212 26.9241C95.2044 26.9137 95.1615 26.9984 95.1631 27.1932C95.1714 28.0276 95.1664 28.8619 95.167 29.6969C95.167 30.4305 95.1593 31.1641 95.1686 31.8978C95.1895 33.5224 96.1824 34.6314 97.7498 34.7861C97.9408 34.8048 98.1345 34.8037 98.3266 34.8009C100.031 34.7778 101.191 33.671 101.228 31.9649C101.262 30.3611 101.233 28.7557 101.24 27.1509Z" fill="white"/>
<path d="M71.7263 30.2808C67.7637 30.2808 63.8011 30.2808 59.8385 30.2808C55.8852 30.2808 51.9314 30.2808 47.9782 30.2808C47.8774 30.2808 47.7762 30.277 47.6755 30.2841C47.3893 30.305 47.1757 30.5191 47.1587 30.7965C47.1422 31.0623 47.3414 31.3194 47.6149 31.3683C47.7222 31.3876 47.834 31.3815 47.944 31.3815C55.8693 31.3821 63.7945 31.3821 71.7197 31.3821C72.2349 31.3821 72.5051 31.1851 72.4974 30.8169C72.4897 30.4564 72.2376 30.2808 71.7263 30.2808Z" fill="white"/>
<path d="M191.118 30.283C191.036 30.278 190.953 30.2808 190.87 30.2808C182.946 30.2808 175.021 30.2808 167.096 30.2808C167.023 30.2808 166.949 30.2791 166.876 30.2819C166.554 30.2951 166.327 30.5053 166.313 30.8031C166.299 31.1063 166.531 31.3551 166.856 31.3793C166.956 31.387 167.057 31.3821 167.158 31.3821C171.093 31.3821 175.028 31.3821 178.963 31.3821C182.925 31.3821 186.887 31.3821 190.849 31.3815C190.959 31.3815 191.071 31.3876 191.179 31.37C191.459 31.3254 191.655 31.0838 191.646 30.8097C191.638 30.5208 191.42 30.3017 191.118 30.283Z" fill="white"/>
<path d="M20.3883 38.6618C18.9728 39.0602 17.5231 39.0266 16.0746 38.9546C15.702 38.9358 15.3316 38.8654 14.894 38.8098C14.9766 38.9039 15.0063 38.9501 15.0476 38.9821C15.1703 39.0778 15.2903 39.1796 15.4235 39.2584C16.5138 39.9039 17.7081 40.2358 18.9524 40.4108C20.1973 40.5858 21.417 40.5121 22.6107 40.0811C25.106 39.1791 26.9993 37.4752 28.717 35.5318C28.8507 35.3805 28.8425 35.26 28.6691 35.151C28.1952 34.8538 27.6878 34.6557 27.1226 34.6364C26.4704 34.6144 25.9343 34.9127 25.4385 35.2869C24.5166 35.9826 23.6135 36.703 22.6872 37.3932C21.9811 37.921 21.2496 38.419 20.3883 38.6618Z" fill="white"/>
<path d="M127.162 27.2742C127.052 26.9995 126.911 26.89 126.621 26.9247C126.413 26.9494 126.199 26.9406 125.989 26.9263C125.799 26.9131 125.696 26.9693 125.626 27.163C125.431 27.6963 125.207 28.2191 124.996 28.7464C124.227 30.6682 123.459 32.5907 122.686 34.5114C122.626 34.6617 122.658 34.7041 122.816 34.7019C123.247 34.6958 123.677 34.6942 124.108 34.703C124.256 34.7063 124.314 34.6424 124.362 34.5142C124.497 34.1542 124.655 33.8026 124.785 33.441C124.855 33.2484 124.957 33.1768 125.166 33.1812C125.808 33.195 126.45 33.1862 127.091 33.1862C127.884 33.1862 127.882 33.1867 128.181 33.9336C128.278 34.1796 128.331 34.49 128.512 34.6446C128.709 34.8136 129.04 34.6705 129.266 34.7002C129.504 34.7002 129.697 34.6876 129.888 34.7035C130.135 34.7239 130.156 34.6446 130.068 34.4305C129.092 32.0469 128.121 29.6633 127.162 27.2742ZM127.101 31.7679C126.616 31.7635 126.131 31.7668 125.646 31.7651C125.566 31.7651 125.456 31.7767 125.51 31.6396C125.786 30.9368 126.067 30.2357 126.368 29.4773C126.673 30.2247 126.95 30.9104 127.231 31.5945C127.289 31.736 127.236 31.7695 127.101 31.7679Z" fill="white"/>
<path d="M5.06757 13.8118C5.23873 13.8767 5.40439 13.9549 5.57335 14.027C7.57007 14.8806 9.56789 15.7325 11.563 16.5895C11.7116 16.6533 11.7969 16.6379 11.8646 16.4854C12.0038 16.1745 12.1975 15.8954 12.3885 15.6153C12.4243 15.563 12.4534 15.5069 12.4925 15.4419C12.4457 15.3825 12.4039 15.3236 12.3566 15.2702C12.0148 14.8872 11.6725 14.5047 11.3296 14.1222C10.1546 12.8118 8.97955 11.5008 7.80397 10.1915C7.72967 10.1084 7.66693 9.97794 7.53154 10.1408C6.62179 11.2344 5.76708 12.3682 4.99602 13.5647C4.91732 13.6857 4.92392 13.7573 5.06757 13.8118Z" fill="white"/>
<path d="M22.9705 15.6087C23.1736 15.8921 23.3519 16.1915 23.5121 16.5008C23.5445 16.5635 23.5638 16.6439 23.6744 16.634C23.7317 16.6103 23.7994 16.5822 23.8665 16.5536C24.8693 16.126 25.872 15.6984 26.8753 15.2702C28.0047 14.7886 29.1324 14.3043 30.2639 13.8288C30.4417 13.7539 30.4505 13.6846 30.3503 13.5305C29.5952 12.3681 28.7642 11.2624 27.8809 10.1953C27.773 10.0648 27.7042 10.0236 27.5688 10.176C26.0454 11.8876 24.5165 13.5949 22.9848 15.2994C22.883 15.4127 22.8885 15.4942 22.9705 15.6087Z" fill="white"/>
<path d="M9.0883 32.0676C10.7658 31.8447 12.3123 31.1898 13.9188 30.5266C13.6283 30.3753 13.391 30.2608 13.1621 30.1304C12.5424 29.7765 11.9397 29.3907 11.2848 29.1012C9.97714 28.5227 8.6315 28.3406 7.24184 28.7566C6.25889 29.0511 5.49498 29.7005 4.73933 30.3577C4.58908 30.4881 4.72502 30.5475 4.79382 30.6125C6.00022 31.7611 7.42841 32.2883 9.0883 32.0676Z" fill="white"/>
<path d="M81.1623 30.0138C80.4474 30.0297 79.7325 30.0127 79.0176 30.0237C78.8101 30.027 78.7231 29.9797 78.7358 29.7529C78.755 29.4056 78.7523 29.0561 78.7369 28.7083C78.7275 28.4964 78.7881 28.4221 79.0104 28.4265C79.7435 28.4397 80.4771 28.4265 81.2102 28.4348C81.3869 28.4364 81.4529 28.3853 81.4463 28.2025C81.4342 27.8635 81.4304 27.5234 81.4474 27.1855C81.4579 26.9763 81.3869 26.924 81.1838 26.9251C79.9097 26.9339 78.6351 26.935 77.361 26.9246C77.1381 26.9229 77.0858 26.9945 77.0874 27.2058C77.0962 28.4067 77.0918 29.6076 77.0918 30.8085C77.0918 32.0188 77.0962 33.229 77.0874 34.4387C77.0858 34.6407 77.1381 34.7133 77.3478 34.7045C77.7231 34.6886 78.0996 34.6891 78.4749 34.7045C78.6879 34.7133 78.7578 34.6528 78.7545 34.431C78.7413 33.5972 78.749 32.7628 78.7495 31.9285C78.7495 31.5377 78.7495 31.5372 79.1271 31.5372C79.8057 31.5372 80.4843 31.5267 81.1623 31.5427C81.3995 31.5482 81.4601 31.4678 81.4474 31.2455C81.4298 30.9345 81.4298 30.6214 81.4474 30.311C81.4601 30.0864 81.3995 30.0088 81.1623 30.0138Z" fill="white"/>
<path d="M13.948 13.438C14.1786 13.7699 14.1797 13.7677 14.5204 13.5784C14.6563 13.503 14.7923 13.4237 14.9354 13.3643C15.1131 13.2911 15.1434 13.1959 15.0917 13.0038C14.4687 10.6972 13.8583 8.38733 13.243 6.0791C13.0999 5.5414 12.9513 5.00479 12.7983 4.44287C12.7361 4.49736 12.6932 4.53038 12.6563 4.56835C11.7719 5.4715 10.9172 6.40327 10.0652 7.33668C9.90284 7.51445 9.91164 7.63443 10.0426 7.82155C11.3486 9.69059 12.6469 11.5657 13.948 13.438Z" fill="white"/>
<path d="M20.3761 13.335C20.5803 13.4384 20.7872 13.5391 20.9777 13.6646C21.1169 13.7565 21.1884 13.7417 21.2837 13.6052C22.6425 11.6497 24.0052 9.69651 25.3729 7.74657C25.4736 7.60293 25.456 7.51322 25.3453 7.39379C24.9474 6.9634 24.5622 6.52146 24.1621 6.09273C23.6508 5.54512 23.1301 5.00576 22.599 4.44824C22.5638 4.48952 22.5544 4.49557 22.5522 4.50383C21.7872 7.36021 21.0228 10.2166 20.2556 13.0724C20.2204 13.2056 20.26 13.2766 20.3761 13.335Z" fill="white"/>
<path d="M136.779 26.9279C135.175 26.9301 133.571 26.9312 131.968 26.9268C131.815 26.9262 131.757 26.9741 131.76 27.1304C131.767 27.5426 131.768 27.9554 131.759 28.3676C131.755 28.5377 131.82 28.5894 131.984 28.5861C132.406 28.5773 132.828 28.596 133.248 28.5784C133.484 28.5685 133.541 28.6577 133.538 28.8784C133.528 29.8035 133.534 30.7292 133.534 31.6549C133.534 32.5806 133.54 33.5058 133.529 34.4315C133.526 34.6522 133.598 34.7139 133.81 34.7039C134.148 34.688 134.488 34.6995 134.827 34.6995C135.201 34.6995 135.201 34.6995 135.201 34.3374C135.201 32.5229 135.207 30.7083 135.195 28.8943C135.194 28.6362 135.272 28.5674 135.519 28.5784C135.94 28.5971 136.362 28.5801 136.783 28.585C136.92 28.5867 136.984 28.547 136.981 28.399C136.975 27.9686 136.975 27.5377 136.981 27.1067C136.985 26.9515 136.908 26.9279 136.779 26.9279Z" fill="white"/>
<path d="M2.07744 20.1112C3.47976 20.1112 4.88209 20.1112 6.28496 20.1112C7.63225 20.1112 8.98009 20.1112 10.3274 20.1112C10.9509 20.1112 10.9416 20.1107 10.9928 19.4959C11.0104 19.2868 10.9438 19.2147 10.7462 19.1673C9.85572 18.9549 8.96854 18.7271 8.0808 18.5014C6.44787 18.0864 4.81494 17.6715 3.18422 17.2488C2.99434 17.1998 2.91674 17.246 2.83473 17.4243C2.4792 18.1987 2.13522 18.9775 1.83583 19.7755C1.70869 20.1123 1.70539 20.1112 2.07744 20.1112Z" fill="white"/>
<path d="M24.4219 19.257C24.2722 19.3974 24.4395 19.6368 24.4158 19.8327C24.3894 20.0518 24.4841 20.1096 24.6976 20.1085C26.1467 20.1002 27.5958 20.1041 29.0444 20.1041C29.0444 20.1063 29.0444 20.1085 29.0444 20.1107C30.4841 20.1107 31.9239 20.1046 33.3636 20.1162C33.6289 20.1184 33.6427 20.0501 33.5557 19.8267C33.2365 19.0066 32.8837 18.2014 32.5232 17.399C32.433 17.1987 32.3201 17.2141 32.1556 17.2565C29.7598 17.8723 27.3636 18.4854 24.9673 19.0991C24.7813 19.147 24.5457 19.142 24.4219 19.257Z" fill="white"/>
<path d="M141.353 27.1447C141.353 26.9774 141.298 26.9218 141.131 26.9262C140.737 26.9361 140.342 26.9433 139.948 26.924C139.719 26.913 139.675 27.0011 139.677 27.208C139.685 28.4001 139.681 29.5922 139.681 30.7837C139.681 31.994 139.687 33.2042 139.675 34.4145C139.673 34.6467 139.743 34.7144 139.97 34.7039C140.354 34.6863 140.74 34.6929 141.125 34.7017C141.286 34.7056 141.354 34.6649 141.354 34.4888C141.35 32.0413 141.35 29.5927 141.353 27.1447Z" fill="white"/>
<path d="M20.1491 36.1691C20.055 36.3309 19.8877 36.5141 20.0242 36.693C20.1546 36.8642 20.3753 36.753 20.5377 36.6963C21.4425 36.3798 22.295 35.9605 23.0171 35.3171C23.47 34.9137 23.7573 34.4139 23.8079 33.7783C23.7881 33.4101 23.661 33.0788 23.3319 32.8515C22.934 32.5768 22.4937 32.4469 22.0088 32.4882C21.6648 32.5174 21.4562 32.7089 21.3902 33.0468C21.3407 33.3006 21.3374 33.5576 21.3473 33.8135C21.3698 34.4024 21.1745 34.906 20.7947 35.3501C20.5685 35.6148 20.3252 35.8669 20.1491 36.1691Z" fill="white"/>
<path d="M25.7331 33.9874C25.9708 33.7986 26.2284 33.7232 26.5283 33.7854C26.7799 33.8371 27.0325 33.8861 27.2911 33.874C27.6428 33.8575 27.7997 33.623 27.6836 33.2906C27.6065 33.0688 27.4309 32.9598 27.2202 32.9004C26.563 32.7149 25.787 32.9912 25.3913 33.5542C25.1139 33.9488 24.9912 34.41 24.8486 34.8613C25.1684 34.5851 25.4078 34.2455 25.7331 33.9874Z" fill="white"/>
<path d="M24.193 31.8586C24.007 31.8735 23.8369 31.9527 23.7918 32.1404C23.745 32.3347 23.9233 32.4194 24.0543 32.5158C24.0763 32.5323 24.0984 32.5493 24.122 32.5625C24.3312 32.6803 24.4088 32.8625 24.3818 33.0942C24.3587 33.2934 24.3317 33.4921 24.3064 33.6913C24.324 33.699 24.3416 33.7067 24.3592 33.7144C24.4666 33.4954 24.5832 33.2797 24.6801 33.0557C24.8166 32.7397 24.7626 32.4266 24.6322 32.1217C24.5502 31.9318 24.3978 31.8421 24.193 31.8586Z" fill="white"/>
</svg>
